<?xml version="1.0" standalone="no"?>
<!DOCTYPE svg PUBLIC "-//W3C//DTD SVG 20010904//EN"
 "http://www.w3.org/TR/2001/REC-SVG-20010904/DTD/svg10.dtd">
<svg version="1.0" xmlns="http://www.w3.org/2000/svg"
 width="512.000000pt" height="512.000000pt" viewBox="0 0 512.000000 512.000000"
 preserveAspectRatio="xMidYMid meet">
<metadata>
Created by potrace 1.14, written by Peter Selinger 2001-2017
</metadata>
<g transform="translate(0.000000,512.000000) scale(0.100000,-0.100000)"
fill="#000000" stroke="none">
<path d="M2686 4664 c-4 -11 -1 -14 13 -9 11 3 22 2 25 -3 3 -5 18 -7 33 -5
23 4 25 2 13 -7 -13 -10 -12 -11 3 -6 10 3 24 6 30 6 23 0 -47 31 -79 35 -22
3 -34 -1 -38 -11z"/>
<path d="M1880 4629 c-19 -10 -40 -26 -47 -35 -7 -9 -19 -14 -28 -11 -8 4 -15
3 -15 -2 0 -4 -22 -22 -50 -39 -27 -17 -50 -37 -50 -44 0 -9 3 -9 8 -2 7 10
27 20 45 22 4 1 19 13 33 27 14 14 29 23 34 20 5 -3 15 3 22 13 7 11 16 20 20
21 17 4 68 37 68 44 0 4 -1 6 -2 6 -2 -1 -19 -10 -38 -20z"/>
<path d="M2786 4621 c-3 -5 1 -14 9 -21 13 -10 15 -9 15 9 0 21 -14 28 -24 12z"/>
<path d="M2863 4608 c2 -7 9 -13 15 -13 6 0 17 -6 24 -13 10 -10 10 -14 0 -21
-10 -6 -7 -12 12 -25 14 -9 26 -24 26 -34 0 -11 3 -13 8 -5 5 8 13 9 22 3 8
-6 11 -10 6 -10 -5 0 -3 -6 4 -14 6 -8 17 -13 24 -10 10 4 13 -4 10 -28 -3
-32 -3 -32 10 -9 10 18 14 20 19 9 3 -8 1 -21 -4 -29 -12 -19 -11 -39 1 -39 6
0 10 11 10 25 0 30 11 32 35 5 26 -28 36 -25 20 7 -11 21 -12 29 -2 35 8 5 7
8 -4 8 -9 0 -22 7 -30 16 -8 9 -25 14 -45 12 -18 -1 -36 1 -40 5 -4 4 -1 7 6
7 8 0 -8 14 -34 31 -27 16 -46 33 -42 36 3 3 14 -1 24 -10 20 -19 85 -47 104
-46 7 0 1 5 -15 11 -15 5 -25 13 -22 18 3 5 -8 11 -25 15 -16 4 -48 22 -71 41
-44 37 -53 41 -46 22z"/>
<path d="M2727 4596 c-4 -9 -3 -15 2 -11 5 3 11 0 13 -7 3 -7 7 -5 11 6 4 9 3
15 -2 11 -5 -3 -11 0 -13 7 -3 7 -7 5 -11 -6z"/>
<path d="M1656 4491 c-14 -15 -15 -21 -4 -27 7 -4 10 -3 5 1 -4 5 0 17 10 27
9 10 14 18 11 18 -3 0 -13 -9 -22 -19z"/>
<path d="M2285 4503 c-26 -6 -44 -23 -24 -23 8 0 24 7 35 15 10 8 17 14 14 14
-3 -1 -14 -3 -25 -6z"/>
<path d="M2629 4493 c-13 -16 -12 -17 4 -4 9 7 17 15 17 17 0 8 -8 3 -21 -13z"/>
<path d="M2396 4480 c-22 -14 -33 -16 -43 -8 -10 8 -13 7 -13 -5 0 -14 -35
-34 -52 -29 -5 1 -8 -5 -8 -13 0 -8 3 -15 7 -15 11 0 132 70 138 80 8 13 6 12
-29 -10z"/>
<path d="M2577 4485 c-15 -8 -40 -23 -54 -35 -14 -11 -30 -20 -35 -20 -11 0 7
19 42 43 l25 18 -30 -7 c-16 -4 -42 -16 -57 -26 -16 -11 -28 -16 -28 -11 0 4
-5 1 -10 -7 -7 -12 -13 -13 -28 -4 -15 10 -28 6 -70 -20 -50 -30 -52 -32 -52
-76 0 -39 -9 -59 -56 -130 -52 -80 -89 -129 -141 -189 l-22 -26 -7 33 c-3 17
-10 32 -15 32 -5 0 -9 8 -10 18 0 9 -7 0 -14 -20 -19 -52 -80 -160 -132 -236
-57 -82 -66 -108 -19 -55 21 24 55 62 77 85 22 24 50 56 62 72 12 15 58 65
102 110 116 120 231 253 269 313 31 47 32 52 15 56 -11 3 -19 2 -19 -2 0 -4
-11 -13 -25 -19 -36 -17 -31 -1 8 23 45 27 51 29 42 15 -6 -10 4 -11 49 -6 55
7 57 7 91 -27 19 -19 37 -32 40 -28 3 3 3 -2 -1 -12 -3 -10 -1 -17 5 -17 6 0
11 4 11 8 0 4 27 37 59 72 33 36 57 67 54 70 -2 3 -16 -8 -30 -25 -18 -21 -23
-24 -19 -10 6 17 5 18 -6 5 -7 -8 -20 -21 -28 -29 -13 -12 -13 -13 3 -8 24 9
21 4 -13 -21 -20 -15 -28 -18 -24 -7 4 8 11 15 17 15 6 0 7 3 4 7 -4 3 -1 13
5 20 22 27 -24 10 -49 -17 -19 -21 -22 -22 -23 -7 0 9 5 17 11 17 5 0 7 5 4
10 -4 6 -1 9 6 8 6 -2 14 3 17 11 3 9 0 11 -9 7 -8 -4 0 4 16 18 34 29 32 32
-8 11z"/>
<path d="M2627 4471 c-38 -25 -42 -31 -19 -24 12 3 28 14 38 24 21 23 17 23
-19 0z"/>
<path d="M3125 4480 c11 -5 29 -9 40 -9 l20 0 -20 9 c-11 5 -29 9 -40 9 l-20
0 20 -9z"/>
<path d="M2305 4460 c3 -5 8 -10 11 -10 2 0 4 5 4 10 0 6 -5 10 -11 10 -5 0
-7 -4 -4 -10z"/>
<path d="M1580 4449 c0 -5 5 -7 10 -4 6 3 10 8 10 11 0 2 -4 4 -10 4 -5 0 -10
-5 -10 -11z"/>
<path d="M2820 4435 c0 -9 5 -13 10 -10 19 12 9 0 -51 -65 -53 -56 -58 -59
-34 -23 15 23 38 49 51 58 14 9 21 21 18 30 -9 21 -22 19 -29 -6 -4 -11 -9
-18 -13 -15 -3 3 -14 -2 -24 -11 -18 -16 -18 -16 -12 3 4 10 15 25 23 32 13
11 12 11 -9 1 -28 -14 -31 -17 -83 -82 -26 -31 -37 -53 -32 -65 3 -9 3 -13 -1
-9 -4 4 -14 1 -23 -5 -13 -10 -14 -10 -3 2 17 20 15 43 -4 36 -9 -3 -12 -2 -9
5 4 6 14 8 22 4 13 -4 14 -3 3 10 -21 25 -46 -7 -54 -67 -8 -58 -26 -97 -67
-148 -16 -19 -29 -40 -29 -46 0 -6 -27 -46 -60 -89 -33 -43 -60 -82 -60 -88 0
-9 -79 -124 -103 -149 -39 -40 -166 -198 -184 -228 -12 -19 -31 -61 -43 -92
-11 -31 -32 -73 -45 -93 -14 -20 -25 -45 -25 -56 0 -25 -17 -59 -30 -59 -6 0
-10 6 -10 14 0 8 -8 17 -17 20 -14 6 -15 9 -4 15 10 7 9 10 -8 16 -12 4 -19
11 -15 18 4 7 3 9 -1 4 -15 -13 -15 -45 0 -57 8 -7 15 -19 15 -26 0 -8 6 -11
15 -8 19 8 19 -4 0 -36 -13 -22 -21 -16 -16 13 0 4 -4 7 -9 7 -6 0 -10 7 -10
15 0 14 -12 20 -33 16 -5 -1 -6 8 -2 19 4 12 2 20 -5 20 -7 0 -14 -9 -17 -19
-3 -13 -11 -18 -21 -14 -12 3 -13 2 -5 -4 7 -5 11 -18 9 -29 -7 -35 8 -47 29
-24 14 16 15 19 4 15 -10 -4 -16 0 -16 10 0 20 9 19 35 -3 35 -31 38 -82 5
-93 -8 -3 -9 -9 -4 -18 7 -10 16 -3 36 30 15 24 57 75 94 113 36 38 54 62 39
53 -26 -16 -55 -25 -32 -9 6 4 21 25 32 48 11 22 27 46 35 52 8 7 13 24 11 39
-1 15 2 36 9 47 6 12 10 27 9 34 -2 6 2 12 7 12 5 0 18 14 28 30 9 17 25 30
35 30 11 0 15 5 12 15 -6 15 5 19 56 17 16 0 18 1 8 5 -25 6 -22 28 5 50 36
31 123 127 107 118 -8 -4 3 11 25 35 22 24 34 39 26 35 -8 -4 1 13 20 39 107
150 137 195 131 202 -4 4 -2 4 5 0 9 -5 8 -15 -3 -44 -13 -34 -13 -35 1 -17
93 120 94 120 110 98 7 -10 11 -22 8 -27 -4 -5 -1 -6 6 -2 7 5 10 10 8 12 -3
3 9 18 26 35 21 22 27 33 19 41 -14 14 12 43 29 32 6 -3 15 -1 19 7 11 16 40
21 37 6 -4 -23 21 -11 49 23 16 19 23 31 16 26 -7 -4 -23 -10 -35 -12 -12 -2
-35 -6 -52 -10 -29 -6 -29 -6 10 23 22 16 46 37 54 47 14 16 12 16 -25 -1 -46
-21 -96 -71 -87 -87 3 -6 3 -8 -2 -4 -4 4 -15 2 -24 -5 -19 -15 62 85 84 103
8 7 12 17 8 23 -3 6 -1 7 6 3 6 -4 18 -2 27 4 12 10 12 16 2 29 -12 14 -11 15
6 1 11 -8 22 -14 25 -12 3 2 8 -5 12 -15 4 -10 8 -12 8 -5 1 7 5 11 10 8 5 -3
15 2 22 11 13 15 11 16 -12 10 -18 -5 -31 -2 -40 9 -7 8 -8 14 -3 12 10 -3 14
4 14 29 0 9 -3 13 -6 10 -4 -3 -15 -2 -25 4 -15 8 -19 6 -19 -6z m-110 -149
c0 -2 -8 -10 -17 -17 -16 -13 -17 -12 -4 4 13 16 21 21 21 13z m120 -40 c0 -3
-4 -8 -10 -11 -5 -3 -10 -1 -10 4 0 6 5 11 10 11 6 0 10 -2 10 -4z m-187 -33
c-9 -16 -23 -36 -31 -46 -9 -9 -12 -20 -8 -24 3 -4 13 2 20 13 20 28 59 71 52
57 -4 -6 -1 -14 4 -16 6 -3 5 -4 -2 -3 -7 1 -30 -20 -51 -47 -22 -27 -44 -46
-52 -44 -7 3 -18 0 -24 -6 -21 -21 -11 0 14 29 29 33 32 36 63 82 28 39 39 43
15 5z m117 13 c0 -3 -4 -8 -10 -11 -5 -3 -10 -1 -10 4 0 6 5 11 10 11 6 0 10
-2 10 -4z m-57 -59 c4 3 7 4 7 2 0 -3 -13 -18 -29 -33 -22 -21 -30 -24 -34
-13 -8 22 22 60 37 48 7 -6 16 -8 19 -4z"/>
<path d="M2579 4123 c-13 -16 -12 -17 4 -4 16 13 21 21 13 21 -2 0 -10 -8 -17
-17z"/>
<path d="M2660 4147 c-12 -21 -12 -21 6 -7 10 8 20 15 22 16 2 1 -1 4 -5 7 -5
3 -15 -4 -23 -16z"/>
<path d="M2887 4420 c9 -10 10 -17 1 -27 -8 -11 -7 -12 6 -7 21 8 20 18 -1 35
-15 11 -16 11 -6 -1z"/>
<path d="M3110 4414 c0 -11 6 -14 21 -9 15 5 19 4 15 -4 -4 -6 -1 -11 6 -12 7
0 4 -4 -7 -9 -17 -8 -16 -9 7 -7 30 3 50 16 27 18 -8 1 -3 5 11 9 23 7 23 8 3
9 -12 1 -25 6 -28 11 -10 17 -55 12 -55 -6z"/>
<path d="M1510 4395 c-19 -14 -30 -25 -25 -25 6 0 24 11 40 25 39 31 30 31
-15 0z"/>
<path d="M3194 4362 c3 -6 24 -12 46 -14 49 -4 39 7 -13 16 -24 5 -37 4 -33
-2z"/>
<path d="M2966 4345 c-3 -9 -10 -13 -16 -10 -5 3 -10 -1 -10 -10 0 -8 -7 -18
-15 -21 -8 -4 -13 -10 -10 -14 3 -5 1 -11 -5 -15 -6 -4 -8 -10 -5 -15 3 -4 -6
-11 -20 -14 -31 -8 -33 -26 -2 -24 16 1 29 14 42 40 15 32 21 36 33 25 17 -14
21 -13 34 5 7 9 8 7 5 -10 -3 -12 -1 -20 4 -16 5 3 9 11 9 18 0 8 6 19 14 25
18 15 27 51 12 48 -6 -1 -14 -13 -17 -27 -3 -14 -11 -24 -18 -22 -7 1 -19 -2
-26 -8 -22 -18 -29 8 -9 31 9 10 15 22 12 24 -3 3 -8 -1 -12 -10z"/>
<path d="M1430 4334 c-10 -11 -10 -14 1 -14 8 0 20 4 27 9 11 7 11 9 -1 14 -9
3 -21 -1 -27 -9z"/>
<path d="M3097 4334 c-3 -5 1 -15 9 -22 16 -14 18 -5 5 17 -5 7 -11 9 -14 5z"/>
<path d="M2865 4290 c-3 -5 -1 -10 4 -10 6 0 11 5 11 10 0 6 -2 10 -4 10 -3 0
-8 -4 -11 -10z"/>
<path d="M3090 4278 c6 -7 10 -22 10 -34 0 -13 5 -26 10 -29 17 -10 3 47 -15
62 -8 7 -10 8 -5 1z"/>
<path d="M2946 4254 c-20 -19 -20 -21 -1 -21 8 0 13 3 10 5 -3 3 0 11 6 19 16
18 4 16 -15 -3z"/>
<path d="M3147 4253 c-4 -3 -7 -20 -7 -36 0 -39 13 -27 14 13 1 16 1 30 0 30
0 0 -4 -3 -7 -7z"/>
<path d="M1330 4225 c-11 -13 -10 -14 4 -9 9 3 16 10 16 15 0 13 -6 11 -20 -6z"/>
<path d="M3052 4223 c-11 -10 -30 -26 -41 -35 -12 -10 -21 -24 -21 -32 0 -16
34 -31 50 -21 5 3 10 1 10 -4 0 -6 4 -11 9 -11 4 0 7 23 6 51 -3 60 16 53 21
-8 3 -53 3 -53 12 -53 12 0 14 72 2 80 -6 4 -12 17 -13 28 -2 27 -8 27 -35 5z"/>
<path d="M2220 4144 c-68 -86 -379 -419 -391 -419 -5 0 -18 -17 -29 -37 -11
-21 -39 -63 -64 -95 -47 -63 -59 -89 -135 -294 -48 -126 -62 -201 -43 -213 5
-3 14 12 21 32 7 20 23 46 35 57 24 22 36 50 61 140 9 33 25 75 36 93 10 18
19 42 19 53 0 11 8 28 17 37 16 16 16 16 9 -3 -4 -11 -10 -33 -13 -50 -3 -16
-10 -38 -15 -49 -6 -10 -19 -50 -30 -89 -21 -77 -18 -120 8 -110 11 4 12 9 5
16 -14 14 -14 30 -1 22 6 -3 10 1 10 10 0 9 5 13 11 9 6 -3 9 -14 6 -24 -3
-11 1 -21 8 -24 8 -3 11 2 8 14 -5 19 28 45 41 33 3 -3 6 1 6 10 0 15 -11 22
-32 18 -5 0 -8 10 -8 24 0 28 3 30 22 12 10 -10 18 -10 35 -2 21 11 21 11 2
23 -13 8 -19 9 -19 1 0 -5 -5 -7 -10 -4 -6 4 -8 10 -5 15 3 4 -2 14 -11 21 -8
7 -14 8 -13 3 4 -22 -2 -35 -13 -28 -7 4 -8 3 -4 -5 4 -6 -1 -19 -10 -29 -17
-16 -18 -16 -10 3 4 11 13 40 19 64 7 24 17 46 24 48 7 3 13 12 13 20 0 8 11
29 24 46 48 64 96 133 112 162 9 17 38 59 64 95 26 36 64 97 84 135 20 39 79
123 131 188 82 102 110 147 90 147 -2 0 -32 -34 -65 -76z m-466 -871 c8 -20
-8 -21 -26 -2 -16 17 -16 18 2 16 11 -1 22 -7 24 -14z"/>
<path d="M2913 4212 c-7 -5 -26 -7 -42 -6 -22 1 -31 -3 -34 -18 -5 -18 -4 -19
12 -4 9 8 26 13 36 10 11 -3 29 2 40 10 20 16 10 22 -12 8z"/>
<path d="M2764 4187 c-10 -12 -25 -35 -32 -52 -11 -27 -11 -28 3 -11 8 11 15
24 15 29 0 5 7 7 15 4 8 -4 17 -1 21 5 4 7 3 8 -4 4 -18 -11 -14 5 5 19 9 7
12 14 6 18 -5 4 -19 -4 -29 -16z"/>
<path d="M3124 4158 c0 -27 4 -48 9 -48 8 0 7 24 -3 65 -7 25 -8 23 -6 -17z"/>
<path d="M2849 4164 l-24 -27 28 18 c15 9 27 21 27 26 0 14 -5 11 -31 -17z"/>
<path d="M2950 4157 l-23 -32 29 27 c15 15 26 30 23 33 -3 2 -16 -10 -29 -28z"/>
<path d="M3210 4177 c0 -10 8 -17 18 -17 9 0 13 4 7 8 -5 4 -13 11 -17 16 -5
5 -8 2 -8 -7z"/>
<path d="M3251 4186 c2 -2 18 -6 34 -10 22 -5 26 -4 15 4 -14 9 -59 15 -49 6z"/>
<path d="M3330 4150 c6 -11 13 -20 16 -20 3 0 2 5 -2 11 -3 6 0 15 7 20 10 6
8 9 -9 9 -20 0 -21 -3 -12 -20z"/>
<path d="M3256 4152 c-38 -3 -49 -7 -53 -22 -3 -11 -9 -17 -14 -14 -5 3 -9 0
-9 -5 0 -6 5 -11 11 -11 5 0 7 -4 4 -10 -3 -5 3 -10 14 -10 11 0 23 5 26 10 9
15 23 12 27 -5 2 -11 8 -10 28 6 22 18 23 19 3 9 -16 -7 -23 -7 -23 0 0 5 -8
10 -19 10 -10 0 -25 8 -32 18 -11 14 -11 15 1 5 15 -14 68 -17 87 -5 23 15 -3
27 -51 24z"/>
<path d="M2880 4121 c0 -8 -7 -11 -15 -7 -8 3 -14 2 -13 -2 1 -4 -4 -18 -11
-32 -12 -22 -9 -21 20 7 18 18 30 36 26 39 -4 4 -7 2 -7 -5z"/>
<path d="M2759 4103 c-13 -17 -13 -17 6 -3 11 8 22 16 24 17 2 2 0 3 -6 3 -6
0 -17 -8 -24 -17z"/>
<path d="M3430 4112 c0 -5 -14 -7 -31 -6 -17 1 -49 -6 -70 -15 l-39 -18 25
-11 c31 -14 46 -15 25 -2 -12 8 -11 10 7 10 15 0 21 -5 17 -14 -3 -8 4 -16 18
-20 45 -12 161 -36 164 -33 3 3 -106 117 -112 117 -2 0 -4 -4 -4 -8z m20 -46
c0 -7 -40 -14 -44 -7 -3 4 6 8 20 9 13 1 24 0 24 -2z"/>
<path d="M2625 4090 c-3 -5 -1 -10 4 -10 6 0 11 5 11 10 0 6 -2 10 -4 10 -3 0
-8 -4 -11 -10z"/>
<path d="M2594 4028 l-19 -23 23 19 c21 18 27 26 19 26 -2 0 -12 -10 -23 -22z"/>
<path d="M2780 4018 c-10 -17 -17 -35 -14 -40 5 -7 -10 -12 -28 -9 -4 0 -5 -6
-1 -15 5 -13 8 -13 24 2 10 9 16 21 13 25 -3 5 0 9 7 9 7 0 9 3 6 7 -4 3 0 17
8 30 9 13 13 23 10 23 -3 0 -14 -14 -25 -32z"/>
<path d="M2805 4019 c-11 -17 1 -21 15 -4 8 9 8 15 2 15 -6 0 -14 -5 -17 -11z"/>
<path d="M2619 3993 c-13 -16 -12 -17 4 -4 16 13 21 21 13 21 -2 0 -10 -8 -17
-17z"/>
<path d="M2874 3976 c-3 -9 -10 -13 -16 -10 -5 3 -16 -2 -24 -12 -9 -11 -12
-12 -8 -4 4 8 -9 -3 -29 -25 -39 -43 -50 -70 -17 -40 11 10 20 15 20 10 0 -4
7 -2 15 5 8 7 13 15 11 19 -1 3 6 14 17 24 19 19 19 18 12 -2 -4 -12 -2 -21 4
-21 6 0 11 9 11 19 0 11 4 22 9 26 6 3 8 -4 6 -15 -6 -30 -15 -42 -29 -37 -8
3 -17 -12 -25 -39 -7 -24 -18 -44 -24 -44 -8 0 -8 -3 0 -11 7 -7 17 -8 25 -3
7 5 19 9 25 10 16 3 64 40 58 45 -2 2 7 9 21 16 13 6 24 10 24 8 0 -2 -30 -29
-68 -62 -37 -32 -67 -61 -67 -65 0 -8 -53 -57 -57 -53 -2 2 -10 -4 -18 -13
-13 -14 -12 -15 5 -8 11 5 28 11 38 13 9 3 17 10 17 16 0 6 3 7 7 4 3 -4 12
-2 20 4 7 6 13 8 13 4 0 -5 9 0 20 10 11 10 23 16 26 13 3 -3 -10 -16 -28 -29
-18 -13 -34 -23 -35 -21 -7 6 -23 1 -19 -7 3 -5 0 -8 -7 -8 -22 1 -74 -26 -86
-45 -9 -15 -8 -18 9 -18 11 0 23 6 26 14 3 8 12 12 20 9 8 -3 14 0 14 7 0 6 5
8 13 4 7 -5 7 -1 -2 10 -13 16 -12 17 11 11 18 -5 27 -2 31 9 4 9 12 16 20 16
7 0 26 14 43 32 16 17 22 28 14 24 -8 -4 -1 3 15 16 17 12 43 35 59 51 l29 28
-39 26 c-22 14 -54 43 -71 65 -26 31 -34 37 -39 24z"/>
<path d="M2430 3895 c-32 -34 -20 -48 13 -14 15 15 23 30 18 33 -4 3 -18 -5
-31 -19z"/>
<path d="M3011 3824 c-12 -19 -17 -32 -11 -29 18 11 11 -8 -12 -34 -19 -20
-14 -18 22 8 41 30 40 28 -13 -22 -32 -30 -59 -61 -61 -68 -1 -8 -5 -21 -10
-29 -5 -8 12 5 37 29 26 25 50 41 54 37 4 -4 0 -12 -10 -17 -9 -6 -15 -14 -12
-18 5 -9 -33 -48 -44 -43 -3 1 -6 -1 -6 -5 -1 -5 -6 -18 -13 -30 -9 -17 -9
-21 1 -19 21 3 38 17 32 27 -4 5 0 9 8 9 8 0 43 27 79 60 36 32 68 56 72 53 3
-3 6 -1 6 5 0 7 5 12 11 12 6 0 7 -6 2 -12 -4 -7 -7 -22 -8 -33 0 -11 -6 -19
-13 -17 -8 1 -11 -2 -8 -7 4 -5 -2 -18 -12 -28 -29 -27 -56 -73 -48 -80 4 -4
9 3 13 15 3 12 9 22 14 22 5 0 9 8 9 18 0 9 4 13 8 7 12 -17 32 -16 25 2 -4
11 -3 14 5 9 7 -4 12 -14 12 -22 0 -8 4 -14 10 -14 5 0 6 7 3 17 -4 11 -3 14
5 9 7 -4 12 -3 12 3 0 6 7 8 17 4 13 -5 15 -2 10 18 -5 21 -5 22 7 7 7 -10 16
-15 19 -11 4 3 7 1 7 -6 0 -7 5 -9 12 -5 6 4 8 3 5 -2 -3 -6 -2 -16 4 -24 7
-12 9 -9 9 10 0 27 15 17 23 -15 4 -16 5 -14 6 6 0 15 8 29 15 32 10 4 13 1
10 -7 -3 -7 2 -13 11 -13 8 0 15 5 15 11 0 6 10 0 23 -14 12 -14 19 -21 15
-16 -13 16 -9 31 3 19 6 -6 18 -9 25 -6 10 4 14 -4 14 -31 0 -44 16 -48 25 -6
4 17 11 30 16 30 6 0 8 -4 5 -9 -8 -13 16 -29 41 -26 12 1 20 -2 17 -6 -2 -4
19 -12 46 -18 56 -12 110 -37 110 -50 0 -4 32 -30 72 -56 39 -26 93 -67 119
-92 26 -24 46 -37 45 -29 -1 8 -20 28 -42 44 -61 45 -123 118 -151 178 -20 45
-36 62 -86 95 -34 22 -80 44 -102 50 -82 22 -161 52 -210 79 -28 15 -70 31
-95 34 -25 4 -67 13 -95 21 -106 28 -101 28 -124 -11z m696 -280 c-3 -3 -12
-4 -19 -1 -8 3 -5 6 6 6 11 1 17 -2 13 -5z"/>
<path d="M4141 3847 c2 -1 13 -9 24 -17 19 -14 19 -14 6 3 -7 9 -18 17 -24 17
-6 0 -8 -1 -6 -3z"/>
<path d="M2765 3829 c-4 -6 -5 -12 -2 -15 2 -3 7 2 10 11 7 17 1 20 -8 4z"/>
<path d="M2790 3795 c-10 -12 -10 -15 3 -15 19 0 31 16 18 24 -5 3 -14 -1 -21
-9z"/>
<path d="M2595 3705 c-16 -13 -27 -27 -23 -30 3 -3 21 8 39 24 40 37 27 41
-16 6z"/>
<path d="M1219 3683 c-13 -16 -12 -17 4 -4 9 7 17 15 17 17 0 8 -8 3 -21 -13z"/>
<path d="M3211 3624 c0 -11 3 -14 6 -6 3 7 2 16 -1 19 -3 4 -6 -2 -5 -13z"/>
<path d="M1141 3576 c-21 -22 -29 -36 -22 -41 7 -4 10 -1 9 7 -2 7 4 12 13 10
9 -1 21 9 28 24 17 38 9 38 -28 0z"/>
<path d="M1089 3513 c-13 -16 -12 -17 4 -4 9 7 17 15 17 17 0 8 -8 3 -21 -13z"/>
<path d="M1010 3450 c-30 -28 -46 -47 -36 -43 16 5 18 3 13 -11 -4 -10 -3 -15
4 -11 5 4 7 14 4 24 -3 11 5 22 25 34 24 14 61 58 48 57 -2 0 -28 -23 -58 -50z"/>
<path d="M2262 3493 c-13 -5 -7 -23 9 -23 6 0 7 5 4 10 -3 6 1 10 9 10 20 0
31 -20 16 -30 -8 -5 -9 -10 -2 -14 6 -3 13 3 17 14 3 11 11 20 16 20 6 0 8 4
5 8 -6 10 -53 13 -74 5z"/>
<path d="M2380 3440 c-8 -5 -11 -12 -7 -16 4 -4 13 -2 19 4 15 15 7 24 -12 12z"/>
<path d="M2617 3414 c4 -12 14 -15 41 -10 37 6 49 12 39 22 -4 4 -12 2 -20 -4
-8 -7 -18 -7 -27 -2 -23 15 -40 12 -33 -6z"/>
<path d="M872 3377 c-41 -41 -61 -75 -23 -39 10 9 35 32 55 50 19 17 30 32 23
31 -6 0 -31 -20 -55 -42z"/>
<path d="M2415 3410 c-7 -12 2 -12 30 0 19 8 19 9 -2 9 -12 1 -25 -3 -28 -9z"/>
<path d="M2505 3413 c-16 -3 -37 -11 -45 -19 -14 -12 -51 -12 -87 1 -6 2 -13
1 -16 -1 -3 -3 -33 -7 -68 -9 -34 -3 -67 -9 -73 -15 -5 -5 -21 -10 -35 -11
-21 -1 -18 -3 14 -13 22 -7 54 -16 70 -20 29 -6 29 -6 10 10 l-20 17 20 -8
c35 -14 88 -18 81 -7 -3 6 -1 14 5 18 7 4 9 3 5 -4 -3 -6 -2 -13 3 -16 5 -3
11 3 14 13 3 14 11 18 26 14 l20 -5 -22 -19 c-12 -10 -16 -18 -9 -19 6 0 12 4
12 9 0 14 37 20 50 7 8 -8 13 -7 20 4 5 8 13 15 17 16 4 0 15 3 23 7 8 3 22 8
30 10 9 3 4 6 -10 6 -38 2 -3 21 38 21 20 0 31 4 27 10 -6 10 -43 11 -100 3z
m-8 -19 c-3 -3 -12 -4 -19 -1 -8 3 -5 6 6 6 11 1 17 -2 13 -5z m-252 -34 c3
-6 -1 -7 -9 -4 -18 7 -21 14 -7 14 6 0 13 -4 16 -10z"/>
<path d="M4001 3398 c-13 -21 -13 -22 2 -10 9 8 21 11 27 7 5 -3 10 1 10 9 0
23 -23 19 -39 -6z"/>
<path d="M918 3337 c-30 -27 -34 -34 -22 -45 12 -11 14 -9 14 7 0 11 12 28 27
39 16 11 26 23 23 26 -3 3 -22 -9 -42 -27z"/>
<path d="M999 3303 c-13 -17 -13 -17 6 -3 11 8 22 16 24 17 2 2 0 3 -6 3 -6 0
-17 -8 -24 -17z"/>
<path d="M3930 3301 c0 -6 5 -13 10 -16 6 -3 10 1 10 9 0 9 -4 16 -10 16 -5 0
-10 -4 -10 -9z"/>
<path d="M1816 3293 c5 -5 12 -12 16 -18 4 -6 8 -2 8 8 0 9 -7 17 -17 17 -9 0
-12 -3 -7 -7z"/>
<path d="M860 3270 c0 -5 7 -7 15 -4 8 4 15 8 15 10 0 2 -7 4 -15 4 -8 0 -15
-4 -15 -10z"/>
<path d="M923 3227 c-37 -25 -57 -56 -23 -34 11 6 20 15 20 20 0 4 4 6 8 3 4
-2 13 4 20 15 15 23 15 23 -25 -4z"/>
<path d="M3440 3179 c-46 -22 -97 -41 -113 -43 -19 -2 -33 -12 -42 -30 -8 -15
-44 -63 -80 -106 -47 -56 -80 -86 -117 -104 -62 -31 -70 -31 -126 -6 -44 20
-44 20 -69 0 -21 -16 -41 -20 -102 -20 -68 0 -83 4 -149 38 -40 21 -87 51
-105 66 -31 27 -36 28 -127 27 -53 -1 -108 3 -123 8 -22 9 -33 7 -52 -5 -14
-9 -22 -20 -19 -25 9 -14 -46 -98 -82 -126 -19 -14 -45 -25 -59 -25 -20 0 -23
-3 -14 -14 8 -10 5 -19 -12 -36 -12 -13 -19 -17 -15 -11 5 8 2 11 -7 7 -8 -3
-19 -22 -26 -44 -6 -21 -37 -71 -68 -112 -31 -40 -67 -97 -79 -126 -20 -49
-20 -58 -9 -130 12 -74 47 -188 61 -201 4 -3 4 3 0 14 -4 11 -10 63 -13 116
-7 110 -4 119 94 284 29 49 53 95 53 101 0 7 32 44 70 83 39 40 70 76 70 80 0
5 7 11 15 15 8 3 14 9 13 13 -2 4 12 30 31 56 28 42 37 48 60 44 14 -3 34 -1
45 5 13 7 16 7 11 -1 -5 -8 12 -11 57 -10 35 2 78 -1 96 -5 28 -7 185 -105
202 -126 6 -8 70 -31 70 -25 0 2 19 -2 41 -10 66 -24 86 -20 117 24 28 39 30
39 57 25 15 -8 47 -14 71 -14 52 0 125 47 171 109 68 91 160 170 182 156 5 -2
21 5 35 16 15 12 30 19 33 15 4 -3 17 1 29 9 22 14 26 13 74 -37 28 -29 57
-53 63 -53 7 0 31 -19 55 -42 33 -34 42 -38 42 -23 0 10 8 24 18 29 14 9 13
10 -10 11 -16 0 -28 4 -28 9 0 5 -12 12 -27 16 -64 16 -192 137 -164 154 10 7
10 9 -1 14 -8 3 -52 -13 -98 -34z"/>
<path d="M2750 3153 c18 -24 36 -41 39 -38 3 3 -12 22 -33 43 l-39 37 33 -42z"/>
<path d="M1035 3170 c-3 -5 1 -10 9 -10 8 0 18 5 21 10 3 6 -1 10 -9 10 -8 0
-18 -4 -21 -10z"/>
<path d="M1815 3140 c-3 -5 -2 -10 4 -10 5 0 13 5 16 10 3 6 2 10 -4 10 -5 0
-13 -4 -16 -10z"/>
<path d="M3849 3094 c-22 -25 -22 -26 -3 -16 12 6 24 18 28 27 8 21 3 19 -25
-11z"/>
<path d="M1811 3088 c1 -27 15 -52 23 -40 4 6 2 21 -4 32 -12 23 -20 26 -19 8z"/>
<path d="M2920 2979 c0 -5 5 -7 10 -4 6 3 10 8 10 11 0 2 -4 4 -10 4 -5 0 -10
-5 -10 -11z"/>
<path d="M3770 2922 c0 -5 11 -24 25 -43 14 -19 31 -47 40 -64 l14 -30 1 27
c0 17 -14 43 -40 73 -22 25 -40 42 -40 37z"/>
<path d="M3851 2763 c-1 -33 -28 -42 -146 -47 -99 -5 -111 -7 -171 -40 -36
-20 -71 -36 -78 -36 -18 0 -110 -95 -118 -122 -3 -13 -6 -43 -6 -68 l0 -45 8
37 c12 66 205 227 257 216 14 -4 12 -7 -12 -19 -16 -7 -36 -19 -43 -26 -7 -7
-19 -13 -27 -13 -14 0 -87 -71 -80 -79 3 -2 14 4 25 14 18 16 20 16 26 1 9
-23 21 -20 30 7 10 34 39 58 53 44 16 -16 14 -40 -4 -33 -18 7 -20 -5 -3 -22
28 -28 68 3 60 46 -4 20 17 14 43 -13 l25 -24 0 24 c0 18 6 25 19 25 24 0 68
-35 76 -60 4 -11 14 -20 24 -20 10 0 24 -6 30 -14 14 -16 0 -30 -44 -41 -20
-6 -24 -10 -13 -12 9 -2 24 -16 34 -30 l17 -26 12 24 c28 54 41 265 20 331 -8
28 -13 35 -14 21z m-181 -93 c0 -15 -26 -23 -41 -14 -9 5 -7 10 7 15 27 11 34
10 34 -1z m70 0 c0 -5 -11 -10 -24 -10 -14 0 -28 5 -31 10 -4 6 7 10 24 10 17
0 31 -4 31 -10z m80 -11 c18 -10 3 -11 -39 -3 -17 4 -31 11 -31 15 0 10 45 2
70 -12z m13 -215 c-7 -3 -9 -13 -6 -22 4 -15 3 -15 -6 -2 -15 22 -14 30 7 29
9 0 12 -3 5 -5z"/>
<path d="M2440 2739 c0 -5 -6 -9 -14 -9 -8 0 -17 -4 -20 -8 -3 -5 17 -3 44 4
26 7 57 11 67 9 10 -2 28 -4 41 -4 12 -1 22 -7 22 -16 0 -17 -1 -17 -50 -20
-19 -1 -43 -6 -52 -10 -10 -4 -25 -5 -33 -1 -8 3 -15 1 -15 -5 0 -6 -5 -7 -10
-4 -6 4 -30 -3 -53 -14 -23 -11 -54 -19 -69 -17 -15 2 -25 0 -23 -4 3 -4 -12
-11 -33 -15 -20 -4 -31 -10 -24 -12 6 -3 10 -8 7 -13 -3 -5 20 -20 51 -35 48
-23 61 -25 82 -16 20 10 28 9 42 -4 16 -14 19 -13 35 11 l18 27 18 -25 c31
-43 78 -17 73 40 -1 13 4 22 12 22 8 0 14 -4 14 -10 0 -5 7 -10 15 -10 9 0 12
6 8 17 -6 14 -1 15 38 9 70 -11 108 -26 114 -45 9 -31 44 -56 57 -43 8 8 8 15
-3 28 -7 9 -12 27 -11 39 3 25 -34 59 -51 48 -6 -3 -15 1 -22 10 -10 14 -42
21 -112 26 -7 1 -13 10 -13 20 0 13 6 18 18 16 9 -2 25 -4 35 -4 9 -1 17 -8
17 -16 0 -12 4 -13 19 -6 10 6 20 9 22 8 3 -1 -4 4 -14 12 -24 18 -39 21 -154
26 -53 2 -93 -1 -93 -6z m75 -157 c0 -20 -18 -18 -21 1 -1 10 3 16 9 14 7 -2
12 -9 12 -15z"/>
<path d="M2372 2714 c-7 -8 -8 -14 -3 -14 10 0 25 19 20 25 -2 1 -10 -3 -17
-11z"/>
<path d="M2726 2673 c-6 -14 -5 -15 5 -6 7 7 10 15 7 18 -3 3 -9 -2 -12 -12z"/>
<path d="M3406 2494 c-4 -9 -4 -19 -1 -22 2 -3 7 3 11 12 4 9 4 19 1 22 -2 3
-7 -3 -11 -12z"/>
<path d="M577 2463 c-4 -3 -7 -13 -7 -22 1 -13 3 -13 11 2 11 19 8 33 -4 20z"/>
<path d="M2596 2417 c3 -10 9 -15 12 -12 3 3 0 11 -7 18 -10 9 -11 8 -5 -6z"/>
<path d="M3681 2414 c0 -11 3 -14 6 -6 3 7 2 16 -1 19 -3 4 -6 -2 -5 -13z"/>
<path d="M3721 2427 c2 -1 12 -9 22 -16 15 -12 17 -12 11 3 -3 9 -13 16 -22
16 -8 0 -13 -1 -11 -3z"/>
<path d="M3690 1804 c-36 -9 -78 -18 -95 -21 -16 -3 -34 -12 -38 -19 -5 -9
-17 -12 -30 -9 -43 11 -287 -139 -340 -208 -55 -72 -79 -89 -116 -83 -25 4
-41 0 -59 -14 -34 -28 -47 -26 -135 20 -94 49 -144 59 -298 61 -66 1 -181 7
-257 14 -162 14 -225 12 -349 -15 -51 -11 -119 -20 -150 -20 -78 -1 -109 -9
-240 -69 -114 -52 -155 -62 -513 -127 -85 -16 -288 -95 -398 -155 -51 -28 -52
-28 -35 -5 10 13 23 21 28 18 6 -3 4 2 -4 11 -17 22 -29 22 -27 0 0 -12 -7
-19 -21 -21 -26 -4 -31 13 -8 22 9 3 15 11 13 18 -4 23 29 71 100 145 40 42
65 76 60 81 -5 5 -22 -2 -40 -17 -58 -49 -118 -110 -118 -120 0 -5 -9 -12 -20
-16 -21 -7 -74 -65 -66 -72 7 -8 36 23 36 38 0 10 3 10 12 1 9 -9 6 -16 -12
-32 -13 -11 -27 -20 -32 -20 -4 0 -8 -7 -8 -16 0 -9 -5 -12 -12 -8 -7 4 -10 4
-6 -1 4 -4 3 -15 -1 -24 -6 -10 -4 -21 5 -29 12 -10 14 -10 14 2 0 8 5 18 12
22 7 4 8 3 4 -4 -4 -7 -2 -12 5 -12 16 0 -28 -38 -53 -46 -25 -7 -27 -4 -17
21 7 18 8 18 8 2 1 -10 6 -15 11 -12 15 9 12 22 -5 29 -18 7 -38 -33 -24 -48
13 -14 11 -50 -3 -65 -9 -10 -9 -12 -1 -7 9 5 10 -4 6 -31 -3 -21 -9 -43 -14
-48 -4 -6 -4 -17 1 -25 6 -8 10 -19 10 -25 0 -5 -5 -3 -10 5 -9 13 -11 13 -20
0 -13 -19 -13 -33 0 -25 13 8 13 -8 0 -21 -7 -7 -6 -11 4 -11 8 0 13 4 10 9
-3 4 0 8 6 8 6 0 8 5 5 10 -3 6 -1 10 6 10 8 0 9 10 5 30 -4 22 -2 29 6 24 7
-4 8 -3 4 4 -9 16 4 63 16 56 6 -4 6 1 -1 13 -12 24 0 85 14 64 6 -11 11 -8
22 10 9 14 12 17 9 6 -4 -11 -9 -30 -12 -43 -3 -13 -11 -21 -16 -18 -6 4 -6 0
0 -13 7 -13 7 -25 -1 -38 -22 -38 -36 -119 -24 -134 8 -10 9 -13 1 -8 -7 4
-14 -7 -18 -32 -3 -22 -15 -61 -27 -87 -11 -27 -18 -57 -15 -67 5 -21 -31
-105 -54 -125 -8 -8 -10 -11 -3 -8 6 4 14 0 16 -6 4 -8 8 -4 12 10 8 24 25 30
25 9 0 -16 29 -19 31 -3 3 27 5 32 19 56 8 14 15 33 17 43 4 23 -15 59 -27 52
-4 -3 -6 4 -3 15 7 28 11 26 29 -18 l17 -37 62 62 c64 65 86 72 59 21 -9 -17
-12 -28 -7 -25 5 4 18 25 27 49 10 24 24 55 32 69 7 14 11 29 9 33 -3 3 -2 4
2 1 7 -5 32 25 33 40 0 6 -5 3 -10 -5 -5 -8 -10 -11 -10 -6 0 5 11 19 25 32
l25 23 9 -32 c5 -18 10 -24 10 -14 1 10 6 15 11 12 6 -4 8 -23 5 -43 -6 -39
46 89 66 161 5 20 14 37 20 37 6 0 8 4 5 9 -3 5 1 12 10 15 23 9 24 8 20 -21
-2 -16 -1 -20 1 -10 2 9 9 17 14 17 6 0 7 -6 3 -12 -5 -8 0 -7 11 2 21 17 21
20 -9 -70 -20 -61 -56 -214 -51 -218 2 -2 9 15 16 37 8 28 15 38 21 29 6 -10
8 -10 8 0 0 6 3 12 8 12 12 0 8 -93 -5 -115 -12 -19 -12 -19 -13 5 -1 14 -4
19 -7 12 -3 -7 2 -28 11 -46 9 -19 16 -40 15 -48 0 -7 -4 -4 -8 7 -7 16 -10
10 -16 -28 -4 -26 -12 -50 -18 -54 -7 -4 -8 5 -3 28 4 19 9 50 11 69 l5 35 -9
-32 c-5 -18 -13 -39 -19 -45 -10 -13 -17 -79 -14 -128 l2 -24 17 24 c10 14 18
27 19 30 7 38 30 98 35 94 4 -2 10 24 13 58 11 117 13 128 15 86 0 -22 6 -38
13 -38 6 0 8 -3 5 -6 -12 -13 14 -46 33 -41 13 3 17 0 13 -9 -3 -8 -1 -14 5
-14 11 0 10 75 -1 125 -7 27 -6 27 7 -5 8 -19 15 -48 15 -65 l1 -30 15 29 c8
15 15 36 14 45 -1 9 -4 5 -9 -9 -6 -20 -8 -21 -8 -5 0 11 4 34 8 50 7 29 8 29
9 4 0 -15 7 -32 15 -38 37 -31 23 179 -15 226 -6 7 -6 13 -1 17 5 3 33 -33 62
-79 28 -47 53 -85 55 -85 2 0 1 8 -2 18 -2 10 3 31 11 47 9 17 16 42 16 56 0
14 3 29 7 33 5 4 13 22 19 39 10 27 13 29 19 13 4 -10 4 -21 -2 -25 -5 -3 -9
-43 -8 -88 1 -46 -2 -77 -7 -70 -4 7 -8 -13 -8 -45 0 -31 5 -60 11 -64 8 -4
10 8 8 40 -3 34 -1 45 8 41 10 -3 12 10 10 50 -1 30 2 55 7 55 5 0 6 19 3 43
l-6 42 19 -40 19 -40 -2 36 c-1 21 -5 35 -9 32 -5 -2 -8 5 -8 16 0 12 5 21 11
21 5 0 8 4 5 9 -3 5 0 11 8 14 9 4 19 -8 29 -36 8 -23 24 -66 35 -96 10 -30
22 -49 25 -44 6 10 -2 45 -19 87 -5 14 -4 17 4 12 8 -5 12 1 12 16 l1 23 15
-25 15 -25 -6 28 c-4 21 -2 28 7 25 14 -5 25 -24 54 -96 16 -40 45 -76 31 -38
-4 10 -3 15 3 11 6 -3 10 -17 10 -31 0 -36 20 -29 22 9 2 49 -2 81 -13 92 -15
15 -10 29 6 15 16 -13 12 2 -19 89 -20 54 -20 57 -1 41 13 -11 14 -10 10 3 -4
8 -2 18 4 21 5 4 12 -4 16 -16 4 -13 18 -53 32 -90 23 -60 27 -65 41 -51 13
12 13 21 4 45 -9 25 -9 29 4 24 11 -4 14 -1 10 12 -3 9 -8 31 -11 47 -5 26 -4
27 4 8 6 -13 16 -23 22 -23 7 0 10 -3 6 -6 -3 -3 3 -15 13 -27 11 -11 27 -42
35 -68 23 -69 36 -70 20 -2 -7 32 -12 60 -9 62 2 2 4 -1 4 -8 0 -7 5 -9 12 -5
7 4 8 3 4 -4 -4 -7 -3 -12 3 -12 5 0 13 -9 16 -21 4 -11 9 -19 11 -16 2 2 -2
19 -10 38 -17 42 -29 98 -19 84 4 -5 17 -11 27 -13 16 -3 13 4 -13 37 -18 22
-37 43 -42 46 -10 7 -2 54 12 69 4 5 5 15 2 22 -3 9 3 14 18 15 13 0 19 3 12
5 -13 6 14 44 32 44 6 0 16 9 23 20 7 11 17 20 23 20 6 0 17 7 25 15 9 8 26
15 39 15 13 0 26 4 29 9 3 5 26 12 51 15 25 4 45 11 45 16 0 5 8 9 18 9 9 0
42 7 72 15 30 9 66 16 80 16 14 0 32 6 39 13 11 10 12 9 6 -1 -6 -12 -3 -12
16 -2 21 12 126 9 214 -5 17 -3 99 -7 184 -10 104 -2 156 -8 161 -16 4 -6 13
-8 19 -4 14 8 71 -13 71 -26 0 -5 7 -9 16 -9 10 0 14 -6 11 -14 -6 -16 10 -25
66 -36 29 -6 42 -3 58 11 15 13 27 16 37 10 33 -19 94 19 139 87 9 12 20 22
25 22 5 0 23 9 39 21 16 11 29 16 29 11 0 -6 10 -6 24 1 13 7 23 14 21 17 -2
3 11 6 28 7 17 1 34 8 38 14 4 6 12 8 18 5 6 -4 11 -3 11 3 0 5 10 13 23 16
12 4 32 16 43 27 25 22 72 21 91 -2 7 -8 13 -11 13 -6 0 5 8 2 17 -5 11 -10
14 -10 9 -1 -10 16 5 15 29 -4 17 -13 18 -16 5 -25 -11 -7 -8 -8 13 -5 29 5
38 -8 12 -18 -8 -3 -15 -10 -15 -16 0 -6 5 -8 10 -5 44 27 -89 -297 -193 -468
-40 -65 -81 -133 -91 -150 -10 -18 -59 -93 -108 -167 -123 -188 -154 -207
-366 -230 -57 -6 -116 -8 -131 -5 -21 4 -28 2 -28 -9 0 -8 4 -13 9 -10 4 3 8
1 8 -4 0 -6 8 -9 17 -8 10 0 19 -7 21 -18 2 -10 0 -16 -6 -12 -6 4 -8 -2 -5
-15 4 -14 8 -17 13 -9 9 15 18 1 15 -22 -2 -12 3 -15 21 -12 19 3 24 0 24 -15
0 -15 5 -19 17 -14 10 4 14 2 9 -5 -3 -6 -2 -13 4 -17 5 -3 10 -19 10 -34 0
-15 3 -31 8 -35 4 -4 7 -11 8 -14 3 -23 19 -42 35 -42 10 0 19 -5 19 -12 0 -6
3 -8 7 -5 3 4 12 -1 20 -11 13 -15 13 -15 4 5 -8 15 -8 24 -1 28 11 7 14 1 30
-61 13 -52 47 -131 60 -139 6 -4 6 4 0 21 -9 23 -9 25 4 15 16 -13 15 -7 -12
74 -17 50 -22 94 -12 100 6 3 10 17 10 30 0 32 14 38 35 15 9 -10 22 -17 28
-14 12 4 39 -34 64 -88 6 -16 15 -28 18 -28 3 0 2 8 -3 18 -12 22 -7 85 7 90
6 2 12 11 12 20 1 9 5 4 9 -13 7 -30 9 -28 25 21 4 13 7 13 23 -3 11 -10 24
-33 30 -51 11 -31 90 -152 100 -152 2 0 -3 11 -12 25 -9 14 -23 36 -32 50 -9
14 -14 28 -11 32 4 3 11 -5 16 -18 11 -30 95 -113 85 -84 -4 11 -19 38 -33 60
-14 22 -24 48 -22 58 1 9 -2 17 -8 17 -6 0 -8 -7 -5 -15 4 -8 2 -15 -4 -15 -6
0 -15 14 -21 31 -15 43 -14 45 10 23 l22 -19 -7 30 c-4 17 -8 42 -10 57 -1 14
-10 38 -19 52 -10 14 -17 33 -17 43 1 17 1 17 11 1 19 -33 26 -18 26 57 1 74
12 105 38 105 7 0 13 11 13 25 0 35 30 95 48 95 11 0 13 6 9 19 -4 13 0 23 11
29 11 6 16 23 17 55 1 52 7 58 30 24 l16 -22 0 23 c1 12 6 22 11 22 6 0 15
-10 21 -22 7 -18 8 -12 5 27 -3 28 -8 58 -11 67 -5 13 -2 15 14 11 11 -3 19
-10 18 -16 -1 -6 6 -11 16 -12 9 0 28 -18 42 -40 28 -46 32 -41 10 12 -18 42
-18 46 -4 37 6 -3 3 5 -6 20 -10 15 -15 29 -12 32 3 3 10 -3 16 -14 7 -13 17
-18 30 -15 19 5 19 5 0 24 -10 10 -19 23 -19 29 0 5 -5 9 -11 7 -6 -1 -14 4
-16 11 -3 6 1 12 8 12 8 0 6 7 -6 20 -10 11 -15 20 -11 20 10 0 55 -53 56 -66
0 -6 7 -17 15 -24 13 -11 13 -8 3 21 -6 19 -14 36 -18 39 -11 8 -21 142 -10
135 6 -4 6 4 0 20 -15 40 -13 85 4 79 17 -6 26 -27 31 -69 5 -36 44 -118 45
-93 0 10 -6 35 -14 55 -17 44 -36 134 -36 166 0 18 2 19 10 7 7 -11 10 3 10
46 0 53 3 62 18 60 9 0 27 -19 39 -41 l22 -40 1 50 1 50 14 -30 13 -30 1 27
c1 22 5 27 22 25 11 -2 25 -10 31 -18 10 -15 8 -4 -9 39 -6 15 -5 15 10 3 15
-12 17 -11 17 12 0 14 -4 29 -10 32 -5 3 -10 10 -10 15 0 5 32 -23 70 -62 39
-39 70 -68 70 -63 0 4 8 1 17 -6 11 -10 14 -10 9 -1 -17 29 15 9 49 -30 20
-24 32 -34 26 -22 -5 11 -17 26 -25 34 -24 19 -19 32 7 16 12 -8 30 -31 41
-50 10 -19 27 -37 38 -39 11 -3 17 -10 14 -15 -3 -6 1 -12 9 -16 8 -3 17 0 21
6 4 6 3 8 -4 4 -12 -7 -26 29 -17 45 4 6 -2 13 -14 16 -11 3 -19 9 -16 13 3 5
-14 22 -37 39 -31 23 -45 28 -55 20 -10 -9 -13 -7 -13 7 0 10 -19 39 -42 64
-42 44 -42 44 10 -5 28 -27 52 -46 52 -42 0 11 138 -90 194 -142 28 -25 44
-38 37 -28 -11 14 -11 17 0 17 11 0 11 2 -1 10 -8 5 -12 10 -8 10 8 0 -9 22
-64 83 -19 22 -24 34 -17 43 6 8 6 21 -1 40 -8 24 -8 26 3 10 6 -11 34 -51 60
-90 26 -39 60 -90 75 -113 28 -45 39 -53 39 -28 0 8 -4 15 -9 15 -4 0 -8 9 -8
20 0 11 -4 20 -8 20 -5 0 -9 6 -9 13 -1 20 -70 127 -77 119 -4 -4 -6 -2 -5 3
1 6 -10 37 -25 70 -45 96 -46 103 -31 108 7 3 15 -3 18 -14 3 -12 1 -17 -6
-13 -7 3 -4 -1 6 -9 10 -9 17 -17 16 -19 -1 -1 6 -16 15 -33 10 -16 14 -21 10
-10 -3 11 -8 36 -11 55 -2 19 -10 54 -18 78 -8 23 -15 51 -15 61 0 31 -163 91
-280 103 -166 17 -339 18 -410 2z m483 -399 c-4 -14 -30 -14 -30 0 0 7 7 12
16 10 9 -1 15 -6 14 -10z m-3568 -145 c-3 -5 -12 -10 -18 -10 -7 0 -6 4 3 10
19 12 23 12 15 0z m810 -60 c3 -5 1 -10 -4 -10 -6 0 -11 5 -11 10 0 6 2 10 4
10 3 0 8 -4 11 -10z m-449 -110 c-3 -19 -2 -29 4 -25 6 4 7 -1 3 -11 -6 -15
-7 -15 -15 1 -6 9 -7 27 -4 41 9 35 20 30 12 -6z m474 -72 c0 -18 -17 -7 -29
19 -13 28 -13 28 8 9 12 -11 21 -23 21 -28z m-835 -4 c-7 -15 -11 -33 -8 -40
3 -8 0 -14 -6 -14 -6 0 -8 -7 -4 -17 5 -12 3 -14 -7 -8 -8 5 -11 4 -6 -3 7
-12 -11 -64 -26 -73 -6 -4 -12 -17 -13 -30 -1 -13 -3 -30 -4 -36 -2 -21 -17
-15 -18 7 -1 16 25 87 84 228 3 6 9 12 13 12 5 0 3 -12 -5 -26z m1045 -29 c0
-5 -5 -3 -10 5 -5 8 -10 20 -10 25 0 6 5 3 10 -5 5 -8 10 -19 10 -25z m-835
-85 c-4 -12 -9 -19 -12 -17 -3 3 -2 15 2 27 4 12 9 19 12 17 3 -3 2 -15 -2
-27z m199 -226 c3 -8 2 -12 -4 -9 -6 3 -10 10 -10 16 0 14 7 11 14 -7z m2403
-396 c-3 -8 -6 -5 -6 6 -1 11 2 17 5 13 3 -3 4 -12 1 -19z m-270 -40 c-3 -8
-6 -5 -6 6 -1 11 2 17 5 13 3 -3 4 -12 1 -19z"/>
<path d="M4440 1474 c0 -6 7 -19 16 -30 14 -18 14 -18 3 6 -14 31 -19 36 -19
24z"/>
<path d="M4376 1405 c4 -8 11 -15 16 -15 6 0 5 6 -2 15 -7 8 -14 15 -16 15 -2
0 -1 -7 2 -15z"/>
<path d="M3440 1318 c-14 -5 -48 -7 -76 -5 -29 3 -69 1 -90 -4 -22 -6 -52 -14
-69 -18 -29 -7 -29 -7 -6 -13 18 -5 22 -12 18 -27 -6 -24 -3 -25 24 -10 11 5
46 12 77 15 77 5 101 12 134 35 44 32 37 48 -12 27z"/>
<path d="M4383 1274 c20 -22 35 -43 32 -46 -3 -3 3 -11 12 -19 16 -13 17 -12
5 3 -9 12 -10 17 -1 20 6 2 -11 21 -37 43 l-49 38 38 -39z"/>
<path d="M2788 1295 c-3 -3 -38 -6 -79 -7 -85 -1 -83 -2 29 -21 77 -13 82 -13
82 4 0 10 8 20 18 22 9 3 3 5 -14 6 -17 0 -33 -1 -36 -4z"/>
<path d="M4263 1272 c0 -12 3 -19 6 -17 2 3 11 -1 20 -7 10 -8 8 -3 -4 12 -11
14 -21 27 -22 29 -1 2 -1 -6 0 -17z"/>
<path d="M4294 1222 c4 -3 14 -7 22 -8 9 -1 13 0 10 4 -4 3 -14 7 -22 8 -9 1
-13 0 -10 -4z"/>
<path d="M4557 1219 c7 -7 15 -10 18 -7 3 3 -2 9 -12 12 -14 6 -15 5 -6 -5z"/>
<path d="M4390 1216 c0 -2 8 -10 18 -17 15 -13 16 -12 3 4 -13 16 -21 21 -21
13z"/>
<path d="M4472 1200 c7 -11 17 -20 22 -20 5 0 1 9 -9 20 -10 11 -20 20 -22 20
-2 0 2 -9 9 -20z"/>
<path d="M3128 1203 c6 -2 18 -2 25 0 6 3 1 5 -13 5 -14 0 -19 -2 -12 -5z"/>
<path d="M4330 1191 c0 -5 7 -16 15 -25 8 -8 15 -17 15 -21 0 -3 21 -27 48
-53 26 -26 54 -58 63 -72 9 -14 20 -22 23 -19 4 4 -9 25 -29 49 -19 23 -35 45
-35 49 0 4 -11 13 -24 21 -14 7 -27 22 -30 34 -5 21 -46 54 -46 37z"/>
<path d="M4560 1156 c0 -2 8 -10 18 -17 15 -13 16 -12 3 4 -13 16 -21 21 -21
13z"/>
<path d="M3356 1110 c-5 -14 -19 -37 -33 -51 -15 -17 -21 -29 -14 -33 14 -9
64 68 59 91 -3 15 -6 14 -12 -7z"/>
<path d="M415 1030 c-3 -6 1 -7 9 -4 18 7 21 14 7 14 -6 0 -13 -4 -16 -10z"/>
<path d="M4070 1005 c0 -11 5 -27 10 -35 8 -12 10 -12 10 5 0 11 -5 27 -10 35
-8 12 -10 12 -10 -5z"/>
<path d="M441 984 c0 -11 3 -14 6 -6 3 7 2 16 -1 19 -3 4 -6 -2 -5 -13z"/>
<path d="M4310 993 c0 -5 14 -26 31 -48 21 -28 29 -33 26 -19 -4 27 -34 74
-47 74 -6 0 -10 -3 -10 -7z"/>
<path d="M1647 946 c-4 -9 -3 -14 2 -11 5 3 13 -4 16 -16 4 -11 9 -18 12 -16
2 3 -2 17 -10 32 -12 23 -15 25 -20 11z"/>
<path d="M1496 885 c3 -16 7 -36 7 -42 0 -7 4 -13 9 -13 9 0 0 47 -14 70 -6
10 -7 5 -2 -15z"/>
<path d="M387 851 c-22 -70 -21 -76 4 -26 11 22 18 49 16 60 -2 13 -9 0 -20
-34z"/>
<path d="M1607 853 c-4 -3 -7 -18 -6 -32 1 -26 1 -25 10 3 9 31 7 41 -4 29z"/>
<path d="M1136 784 c2 -38 4 -71 4 -74 0 -3 7 6 15 20 20 34 18 70 -4 99 l-19
24 4 -69z"/>
<path d="M1322 825 c0 -11 3 -29 8 -40 11 -25 11 1 0 35 -6 20 -8 21 -8 5z"/>
<path d="M4256 807 c3 -10 9 -15 12 -12 3 3 0 11 -7 18 -10 9 -11 8 -5 -6z"/>
<path d="M1551 803 c0 -4 4 -17 9 -28 8 -19 9 -19 9 2 1 12 -3 25 -9 28 -5 3
-10 3 -9 -2z"/>
<path d="M391 790 c-1 -3 -4 -27 -7 -55 -3 -39 -2 -46 6 -32 6 9 9 34 7 55 -2
20 -5 35 -6 32z"/>
<path d="M1521 774 c0 -11 3 -14 6 -6 3 7 2 16 -1 19 -3 4 -6 -2 -5 -13z"/>
<path d="M1611 774 c0 -11 3 -14 6 -6 3 7 2 16 -1 19 -3 4 -6 -2 -5 -13z"/>
<path d="M1167 722 c-18 -44 -23 -93 -9 -76 13 15 35 90 30 105 -2 7 -12 -6
-21 -29z"/>
<path d="M4430 729 c6 -18 17 -40 25 -48 19 -20 20 -2 0 25 -8 12 -12 24 -9
26 2 3 -2 11 -10 17 -13 11 -14 8 -6 -20z"/>
<path d="M1602 730 c0 -14 2 -19 5 -12 2 6 2 18 0 25 -3 6 -5 1 -5 -13z"/>
<path d="M1620 731 c0 -11 4 -22 9 -25 4 -3 6 6 3 19 -5 30 -12 33 -12 6z"/>
<path d="M4335 720 c3 -5 8 -10 11 -10 2 0 4 5 4 10 0 6 -5 10 -11 10 -5 0 -7
-4 -4 -10z"/>
<path d="M1633 655 c0 -22 2 -30 4 -17 2 12 2 30 0 40 -3 9 -5 -1 -4 -23z"/>
<path d="M4495 680 c3 -5 8 -10 11 -10 2 0 4 5 4 10 0 6 -5 10 -11 10 -5 0 -7
-4 -4 -10z"/>
<path d="M753 604 c-18 -30 -29 -52 -24 -49 12 6 64 95 59 100 -1 2 -18 -21
-35 -51z"/>
<path d="M831 623 c-10 -26 -10 -27 4 -9 8 11 15 23 15 28 0 15 -7 8 -19 -19z"/>
<path d="M4200 640 c0 -5 5 -10 11 -10 5 0 7 5 4 10 -3 6 -8 10 -11 10 -2 0
-4 -4 -4 -10z"/>
<path d="M1831 624 c0 -11 3 -14 6 -6 3 7 2 16 -1 19 -3 4 -6 -2 -5 -13z"/>
<path d="M1008 605 c-3 -14 -1 -28 3 -31 5 -3 9 9 9 25 0 38 -6 40 -12 6z"/>
<path d="M1071 614 c0 -11 3 -14 6 -6 3 7 2 16 -1 19 -3 4 -6 -2 -5 -13z"/>
<path d="M1681 594 c0 -11 3 -14 6 -6 3 7 2 16 -1 19 -3 4 -6 -2 -5 -13z"/>
<path d="M768 519 c-24 -39 -48 -79 -53 -89 -6 -10 -17 -26 -25 -36 -9 -11
-10 -15 -2 -10 16 10 16 -12 -2 -66 -18 -56 -30 -169 -15 -148 8 11 9 6 5 -20
-4 -21 4 -7 18 33 13 38 25 89 26 115 1 26 3 58 4 72 2 14 4 36 5 50 2 20 6
15 15 -20 l12 -45 6 55 c4 30 15 73 26 95 23 47 35 85 28 85 -3 0 -24 -32 -48
-71z m-75 -264 c-3 -9 -8 -14 -10 -11 -3 3 -2 9 2 15 9 16 15 13 8 -4z"/>
<path d="M1691 544 c0 -11 3 -14 6 -6 3 7 2 16 -1 19 -3 4 -6 -2 -5 -13z"/>
<path d="M1034 462 c-1 -15 -6 -63 -13 -106 -7 -44 -10 -87 -8 -98 3 -10 1
-16 -3 -13 -5 3 -11 -13 -15 -35 -4 -22 -11 -42 -16 -46 -5 -3 -9 -11 -9 -17
0 -7 9 2 21 18 l20 30 -5 -35 -6 -35 15 30 c8 17 14 38 15 48 0 9 5 17 10 17
6 0 10 5 10 11 0 5 -5 7 -11 3 -7 -4 -10 -1 -7 7 3 8 11 13 17 11 8 -1 9 2 4
10 -11 17 -11 170 0 155 5 -7 5 4 2 23 -9 45 -20 57 -21 22z"/>
<path d="M360 458 c0 -5 5 -8 12 -8 6 0 3 -7 -8 -15 -12 -9 -14 -14 -5 -15 8
0 11 -6 7 -16 -5 -14 -4 -15 9 -4 11 9 15 9 15 1 0 -7 4 -9 10 -6 6 4 7 -1 3
-12 -4 -10 -12 -22 -20 -26 -18 -11 -16 -25 5 -30 16 -4 16 -5 0 -6 -10 0 -18
-8 -18 -17 0 -8 -4 -13 -9 -10 -5 3 -11 -1 -15 -9 -3 -9 1 -15 10 -15 9 0 14
-6 11 -13 -3 -8 1 -14 9 -14 7 0 11 4 9 8 -7 11 56 61 70 55 8 -3 11 2 8 13
-2 10 12 35 35 61 21 25 37 51 34 59 -3 9 0 11 8 6 8 -5 11 -4 6 3 -4 7 -16 6
-36 -5 -33 -16 -41 -26 -12 -16 15 6 15 4 -3 -18 -11 -13 -30 -35 -43 -48
l-24 -23 2 38 c3 55 2 56 -18 45 -11 -6 -24 -6 -33 0 -12 7 -12 9 1 10 8 1 21
2 29 3 8 0 15 9 17 18 1 13 -5 16 -32 15 -19 -1 -34 -5 -34 -9z"/>
<path d="M888 444 c-2 -5 -3 -15 -2 -21 1 -7 2 -18 3 -25 1 -8 4 -9 11 -2 7 7
7 20 2 34 -5 13 -11 19 -14 14z"/>
<path d="M326 414 c-8 -20 -8 -24 2 -24 4 0 8 9 9 20 2 24 -3 26 -11 4z"/>
<path d="M1121 414 c0 -11 3 -14 6 -6 3 7 2 16 -1 19 -3 4 -6 -2 -5 -13z"/>
<path d="M1691 404 c0 -11 3 -14 6 -6 3 7 2 16 -1 19 -3 4 -6 -2 -5 -13z"/>
<path d="M4580 411 c0 -6 5 -13 10 -16 6 -3 10 1 10 9 0 9 -4 16 -10 16 -5 0
-10 -4 -10 -9z"/>
<path d="M639 348 c-12 -23 -12 -23 10 -4 23 21 26 26 11 26 -5 0 -15 -10 -21
-22z"/>
<path d="M986 315 c4 -8 8 -15 10 -15 2 0 4 7 4 15 0 8 -4 15 -10 15 -5 0 -7
-7 -4 -15z"/>
<path d="M1050 321 c0 -5 5 -13 10 -16 6 -3 10 -2 10 4 0 5 -4 13 -10 16 -5 3
-10 2 -10 -4z"/>
<path d="M966 261 c-4 -5 -2 -12 3 -15 5 -4 12 -2 15 3 4 5 2 12 -3 15 -5 4
-12 2 -15 -3z"/>
<path d="M344 214 c-18 -14 -18 -14 6 -3 31 14 36 19 24 19 -6 0 -19 -7 -30
-16z"/>
<path d="M429 188 c-29 -24 -55 -50 -57 -58 -3 -9 9 -3 29 13 19 15 48 38 64
52 17 13 27 26 24 30 -4 3 -31 -13 -60 -37z"/>
<path d="M841 204 c0 -11 3 -14 6 -6 3 7 2 16 -1 19 -3 4 -6 -2 -5 -13z"/>
<path d="M4142 163 c3 -19 58 -32 58 -14 0 6 -7 8 -15 5 -8 -4 -17 1 -21 10
-8 22 -26 20 -22 -1z"/>
<path d="M820 159 c0 -5 5 -7 10 -4 6 3 10 8 10 11 0 2 -4 4 -10 4 -5 0 -10
-5 -10 -11z"/>
<path d="M1050 111 c0 -25 6 -27 13 -6 4 8 2 17 -3 20 -6 4 -10 -3 -10 -14z"/>
<path d="M671 94 c0 -11 3 -14 6 -6 3 7 2 16 -1 19 -3 4 -6 -2 -5 -13z"/>
<path d="M651 84 c0 -11 3 -14 6 -6 3 7 2 16 -1 19 -3 4 -6 -2 -5 -13z"/>
<path d="M1050 43 c0 -43 5 -41 13 5 4 18 2 32 -3 32 -6 0 -10 -16 -10 -37z"/>
<path d="M617 64 c-4 -4 -7 -17 -7 -28 1 -19 1 -20 11 -3 11 19 8 43 -4 31z"/>
<path d="M935 59 c-4 -6 -5 -12 -2 -15 2 -3 7 2 10 11 7 17 1 20 -8 4z"/>
<path d="M635 40 c-4 -12 -5 -24 -2 -27 3 -2 8 5 12 17 4 12 5 24 2 27 -3 2
-8 -5 -12 -17z"/>
</g>
</svg>
